<?xml version="1.0" encoding="utf-8"?>
<!-- Generator: Adobe Illustrator 16.0.2, SVG Export Plug-In . SVG Version: 6.00 Build 0)  -->
<!DOCTYPE svg PUBLIC "-//W3C//DTD SVG 1.1//EN" "http://www.w3.org/Graphics/SVG/1.1/DTD/svg11.dtd">
<svg version="1.1" id="Capa_1" xmlns="http://www.w3.org/2000/svg" xmlns:xlink="http://www.w3.org/1999/xlink" x="0px" y="0px"
	 width="455.369px" height="512px" viewBox="0 0 455.369 512" enable-background="new 0 0 455.369 512" xml:space="preserve">
<g>
	<g>
		<path fill="#FFFFFF" d="M441.158,73.684H334.632V56.316C334.632,25.263,309.369,0,278.315,0H177.054
			C146,0,120.738,25.263,120.738,56.316v17.368H14.21C6.315,73.684,0,80,0,87.894c0,7.895,6.315,14.211,14.21,14.211h25.684V436
			c0,41.895,34.105,76,76,76h223.579c41.896,0,76-34.105,76-76V102.105h25.686c7.896,0,14.211-6.316,14.211-14.211
			C455.369,80,449.053,73.684,441.158,73.684z M149.159,56.316c0-15.369,12.526-27.895,27.895-27.895h101.263
			c15.367,0,27.896,12.526,27.896,27.895v17.368H149.159V56.316z M387.053,436c0,26.211-21.368,47.579-47.579,47.579H115.895
			c-26.21,0-47.579-21.368-47.579-47.579V102.105h318.842V436H387.053z"/>
		<path fill="#FFFFFF" d="M227.685,432.632c7.896,0,14.21-6.314,14.21-14.211V167.263c0-7.895-6.314-14.21-14.21-14.21
			s-14.21,6.315-14.21,14.21v251.053C213.475,426.211,219.789,432.632,227.685,432.632z"/>
		<path fill="#FFFFFF" d="M134.948,416.947c7.895,0,14.21-6.315,14.21-14.211V182.842c0-7.895-6.316-14.21-14.21-14.21
			c-7.894,0-14.21,6.315-14.21,14.21v219.895C120.738,410.632,127.159,416.947,134.948,416.947z"/>
		<path fill="#FFFFFF" d="M320.422,416.947c7.896,0,14.21-6.315,14.21-14.211V182.842c0-7.895-6.314-14.21-14.21-14.21
			s-14.211,6.315-14.211,14.21v219.895C306.211,410.632,312.526,416.947,320.422,416.947z"/>
	</g>
</g>
</svg>
