<?xml version="1.0" encoding="utf-8"?>
<!-- Generator: Adobe Illustrator 16.0.2, SVG Export Plug-In . SVG Version: 6.00 Build 0)  -->
<!DOCTYPE svg PUBLIC "-//W3C//DTD SVG 1.1//EN" "http://www.w3.org/Graphics/SVG/1.1/DTD/svg11.dtd">
<svg version="1.1" id="Layer_1" xmlns="http://www.w3.org/2000/svg" xmlns:xlink="http://www.w3.org/1999/xlink" x="0px" y="0px"
	 width="512px" height="456.406px" viewBox="0 0 512 456.406" enable-background="new 0 0 512 456.406" xml:space="preserve">
<g>
	<g>
		<path fill="#FFFFFF" d="M506.555,180.267L263.859,2.57c-4.68-3.426-11.041-3.426-15.716,0L5.445,180.267
			c-5.928,4.341-7.216,12.665-2.875,18.593c4.341,5.928,12.666,7.214,18.593,2.875L256,29.791l234.837,171.943
			c2.368,1.734,5.12,2.57,7.848,2.57c4.099,0,8.141-1.887,10.744-5.445C513.771,192.932,512.483,184.608,506.555,180.267z"/>
	</g>
</g>
<g>
	<g>
		<path fill="#FFFFFF" d="M442.246,204.746c-7.346,0-13.303,5.956-13.303,13.303v211.749H322.521V314.212
			c0-36.68-29.842-66.52-66.521-66.52c-36.678,0-66.52,29.842-66.52,66.52v115.587H83.058V218.051
			c0-7.348-5.957-13.304-13.303-13.304c-7.346,0-13.303,5.956-13.303,13.304v225.053c0,7.347,5.957,13.303,13.303,13.303h133.029
			c6.996,0,12.721-5.405,13.251-12.27c0.032-0.311,0.052-0.648,0.052-1.033V314.213c0-22.009,17.905-39.914,39.914-39.914
			s39.914,17.906,39.914,39.914v128.891c0,0.383,0.021,0.717,0.052,1.021c0.524,6.867,6.251,12.279,13.251,12.279h133.029
			c7.347,0,13.303-5.956,13.303-13.303V218.051C455.549,210.702,449.593,204.746,442.246,204.746z"/>
	</g>
</g>
</svg>
