<?xml version="1.0" encoding="utf-8"?>
<!-- Generator: Adobe Illustrator 16.0.2, SVG Export Plug-In . SVG Version: 6.00 Build 0)  -->
<!DOCTYPE svg PUBLIC "-//W3C//DTD SVG 1.1//EN" "http://www.w3.org/Graphics/SVG/1.1/DTD/svg11.dtd">
<svg version="1.1" id="Laag_1" xmlns="http://www.w3.org/2000/svg" xmlns:xlink="http://www.w3.org/1999/xlink" x="0px" y="0px"
	 width="844.004px" height="719.859px" viewBox="0 0 844.004 719.859" enable-background="new 0 0 844.004 719.859"
	 xml:space="preserve">
<title>CP</title>
<path d="M32.421,654.158c0,8.998,3.057,14.283,14.94,14.283c9.257-0.13,18.492-0.959,27.623-2.486l3.371,20.311
	c-10.189,2.166-20.577,3.259-30.994,3.261c-26.966,0-39.021-12.855-39.021-31.623v-43.248c0-18.771,12.026-31.623,39.021-31.623
	c10.417,0,20.805,1.092,30.994,3.256l-3.371,20.311c-9.131-1.522-18.366-2.354-27.623-2.481c-11.883,0-14.94,5.256-14.94,14.283
	V654.158z"/>
<path d="M89.581,658.843v-17.512c0-15.512,7.541-30.537,35.308-30.537c27.766,0,35.307,15.025,35.307,30.537v17.512
	c0,15.513-7.541,30.535-35.307,30.535C97.122,689.378,89.581,674.355,89.581,658.843z M137.086,659.47v-18.768
	c0-7.144-3.856-11.168-12.197-11.168c-8.342,0-12.198,4.024-12.198,11.168v18.768c0,7.146,3.856,11.17,12.198,11.17
	C133.229,670.64,137.086,666.613,137.086,659.47z"/>
<path d="M173.05,638.703c0-17.824,8.027-27.908,26.338-27.908c6.722,0.041,13.419,0.771,19.996,2.172v-31.424l23.109-3.084v109.463
	h-18.225l-2.457-6.141c-7.272,4.487-15.548,7.102-24.083,7.598c-15.882,0-24.709-9.455-24.709-27.908L173.05,638.703z
	 M219.298,632.048c-4.846-1.127-9.795-1.75-14.769-1.854c-6.112,0-8.341,3.567-8.341,8.567v22.854c0,5.256,2.257,8.567,8.341,8.567
	c5.417-0.377,10.581-2.434,14.769-5.885V632.048z"/>
<path d="M282.371,657.929v2.17c0,8.57,3.542,10.998,14.141,10.998c8.028-0.065,16.018-1.164,23.77-3.256l3.37,16.738
	c-9.479,3.115-19.39,4.734-29.365,4.799c-25.366,0-34.993-12.082-34.993-30.707v-17.652c0-16.282,7.541-30.225,33.564-30.225
	c26.021,0,31.62,14.883,31.62,31.422v15.826L282.371,657.929z M302.596,637.933c0-5.282-1.6-9.627-9.627-9.627
	c-8.023,0-10.598,4.345-10.598,9.627v3.259h20.225V637.933z"/>
<path d="M383.695,656.529H365.38v31.422H341.3V584.572h43.68c25.992,0,35.646,9.912,35.646,29.309v13.482
	C420.601,646.759,409.689,656.529,383.695,656.529z M396.548,616.05c0-7.426-2.854-10.854-12.854-10.854h-18.313v31.166h18.313
	c10.598,0,12.854-3.888,12.854-11.431V616.05z"/>
<path d="M476.046,687.837l-1.6-4.801c-6.82,3.873-14.471,6.059-22.313,6.371c-14.453,0-20.395-10.084-20.395-22.854
	c0-15.194,7.227-21.254,23.279-21.254h16.854v-5.713c0-7.74-1.457-10.396-13.797-10.396c-7.119,0.056-14.215,0.779-21.195,2.171
	l-3.057-16.738c9.168-2.406,18.602-3.654,28.08-3.715c27.137,0,33.078,7.912,33.078,28.821v48.222L476.046,687.837z
	 M471.876,660.699h-10.969c-4.971,0-6.914,1.229-6.914,5.428s1.771,5.885,6.256,5.885c4.053,0.015,8.055-0.887,11.713-2.629
	L471.876,660.699z"/>
<path d="M559.945,687.837v-49.934c0-3.4-1.604-5.431-5.713-5.431c-5.914,0.714-11.639,2.556-16.855,5.431v49.934h-23.109v-75.5
	h17.143l2.396,5.713c9.793-4.467,20.377-6.94,31.139-7.283c5.758-0.473,11.283,2.351,14.281,7.283
	c9.846-4.615,20.555-7.098,31.424-7.283c13.313,0,17.969,9.625,17.969,24.193v52.877h-23.109v-49.934c0-3.4-1.6-5.431-5.713-5.431
	c-5.914,0.714-11.637,2.556-16.854,5.431v49.934H559.945z"/>
<path d="M644.585,658.843v-17.512c0-15.512,7.541-30.537,35.307-30.537c27.77,0,35.311,15.025,35.311,30.537v17.512
	c0,15.513-7.541,30.535-35.311,30.535C652.126,689.378,644.585,674.355,644.585,658.843z M692.089,659.47v-18.768
	c0-7.144-3.854-11.168-12.197-11.168c-8.342,0-12.193,4.024-12.193,11.168v18.768c0,7.146,3.854,11.17,12.193,11.17
	c8.344,0,12.344-4.024,12.344-11.17H692.089z"/>
<path d="M719.371,705.347c7.227-6.514,12.025-10.227,12.025-16.909v-76.101h23.107v78.955c0,8.998-6.914,17.141-21.195,28.566
	L719.371,705.347z M731.425,602.74v-23.711h23.109v23.711H731.425z"/>
<path d="M816.494,687.837l-1.602-4.801c-6.82,3.873-14.473,6.057-22.311,6.371c-14.455,0-20.396-10.084-20.396-22.854
	c0-15.194,7.227-21.254,23.279-21.254h16.854v-5.713c0-7.74-1.457-10.396-13.797-10.396c-7.117,0.056-14.217,0.779-21.195,2.171
	l-3.057-16.738c9.168-2.406,18.602-3.654,28.078-3.715c27.139,0,33.078,7.912,33.078,28.821v48.222L816.494,687.837z
	 M812.324,660.699H801.24c-4.971,0-6.912,1.229-6.912,5.428s1.77,5.885,6.256,5.885c4.051,0.015,8.053-0.887,11.711-2.629
	L812.324,660.699z"/>
<path fill="#BE1824" d="M40.876,253.38c27.395,35.793,75.213,51.419,115.891,58.046c-20.467-20.634-31.99-48.494-32.079-77.556
	c0-62.473,52.504-113.092,117.119-113.092c30.869-0.131,60.578,11.753,82.844,33.136l71.154-100.666
	C351.992,18.556,297.694-0.22,241.807,0.002C145.971,0.002,63.1,53.734,23.85,131.804C12.253,182.594,17.91,223.386,40.876,253.38z"
	/>
<path fill="#F29106" d="M359.298,233.87h-0.371c0,62.473-52.444,113.092-117.12,113.092c-3.367,0-6.652-0.2-9.969-0.485v0.399
	c-1.172,0-7.256,0.457-16.769,0.457c-41.306,0-147.656-7-199.96-75.415c-5.922-7.763-10.988-16.144-15.111-24.995
	c6.999,123.119,112.606,220.9,241.809,220.9c133.774,0,242.27-104.724,242.27-233.926h0.285c0.031-6.392,0.635-12.768,1.799-19.053
	V28.11C410.66,67.703,359.298,145.001,359.298,233.87z"/>
<path fill="#026634" d="M601.593,0.002c-24.736-0.023-49.346,3.625-73.014,10.826v134.688c20.93-16.1,46.609-24.8,73.014-24.738
	c64.701,0,117.119,50.647,117.119,113.092c0,62.445-52.418,113.09-117.119,113.09c-30.869,0.136-60.578-11.75-82.84-33.135
	c0,0-12.799,96.295-102.637,141.372l-1.172,56.846h150.57l-0.914-46.961c12.291,1.857,24.703,2.813,37.137,2.855
	c133.803,0,242.268-104.752,242.268-233.925C844.003,104.838,735.396,0.002,601.593,0.002z"/>
</svg>
